<svg width="109" height="32" viewBox="0 0 109 32" fill="none" xmlns="http://www.w3.org/2000/svg">
<path d="M28.1605 21.2883C26.3027 25.2647 22.4083 28 17.906 28H14.3977C13.0514 28 11.898 27.1237 11.43 25.8877C11.2803 25.5028 11.1982 25.0823 11.1982 24.6467C11.1982 22.7927 12.6316 21.2883 14.3977 21.2883H28.1605Z" fill="#4B015F"/>
<path d="M2.66699 7.3584C2.66699 5.50442 4.10025 4 5.86644 4H17.9065C22.4137 4 26.308 6.74039 28.1659 10.7167H5.86644C4.10025 10.7167 2.66699 9.21233 2.66699 7.3584Z" fill="#FDAD52"/>
<path d="M29.3334 16.0001C29.3334 17.1651 29.1741 18.2947 28.875 19.3585H10.1321C8.36583 19.3585 6.93262 17.8591 6.93262 16.0051C6.93262 14.1511 8.36583 12.6467 10.1321 12.6467H28.8798C29.1741 13.7105 29.3334 14.8351 29.3334 16.0001Z" fill="#FE2B50"/>
<path d="M44.4545 21H41.0043V10.8182H44.5241C45.535 10.8182 46.4034 11.022 47.1293 11.4297C47.8584 11.834 48.4186 12.4157 48.8097 13.1747C49.2008 13.9337 49.3963 14.8419 49.3963 15.8991C49.3963 16.9598 49.1991 17.8712 48.8047 18.6335C48.4136 19.3958 47.8485 19.9808 47.1094 20.3885C46.3736 20.7962 45.4886 21 44.4545 21ZM42.8487 19.4041H44.3651C45.0743 19.4041 45.666 19.2749 46.1399 19.0163C46.6139 18.7545 46.9702 18.3651 47.2088 17.848C47.4474 17.3277 47.5668 16.678 47.5668 15.8991C47.5668 15.1203 47.4474 14.474 47.2088 13.9602C46.9702 13.4432 46.6172 13.0571 46.1499 12.8018C45.6858 12.5433 45.1091 12.4141 44.4197 12.4141H42.8487V19.4041ZM54.3099 21.1491C53.5443 21.1491 52.8831 20.9901 52.3263 20.6719C51.7728 20.3504 51.3469 19.8963 51.0486 19.3097C50.7503 18.7197 50.6011 18.0253 50.6011 17.2266C50.6011 16.4411 50.7503 15.7517 51.0486 15.1584C51.3502 14.5618 51.7711 14.0978 52.3113 13.7663C52.8516 13.4316 53.4863 13.2642 54.2155 13.2642C54.6861 13.2642 55.1302 13.3404 55.5479 13.4929C55.9688 13.642 56.34 13.8741 56.6615 14.1889C56.9863 14.5038 57.2415 14.9048 57.4271 15.392C57.6127 15.8759 57.7055 16.4527 57.7055 17.1222V17.674H51.4463V16.4609H55.9804C55.9771 16.1162 55.9025 15.8097 55.7567 15.5412C55.6108 15.2694 55.407 15.0556 55.1452 14.8999C54.8866 14.7441 54.585 14.6662 54.2403 14.6662C53.8724 14.6662 53.5493 14.7557 53.2709 14.9347C52.9925 15.1103 52.7754 15.3423 52.6196 15.6307C52.4671 15.9157 52.3892 16.2289 52.3859 16.5703V17.6293C52.3859 18.0734 52.4671 18.4545 52.6295 18.7727C52.7919 19.0876 53.019 19.3295 53.3106 19.4986C53.6023 19.6643 53.9437 19.7472 54.3348 19.7472C54.5966 19.7472 54.8336 19.7107 55.0457 19.6378C55.2578 19.5616 55.4418 19.4505 55.5976 19.3047C55.7533 19.1589 55.871 18.9782 55.9506 18.7628L57.631 18.9517C57.5249 19.3958 57.3227 19.7836 57.0244 20.1151C56.7294 20.4432 56.3516 20.6984 55.8909 20.8807C55.4302 21.0597 54.9032 21.1491 54.3099 21.1491ZM60.8878 10.8182V21H59.0881V10.8182H60.8878ZM62.5985 21V13.3636H64.3982V21H62.5985ZM63.5033 12.2798C63.2183 12.2798 62.973 12.1854 62.7675 11.9964C62.562 11.8042 62.4593 11.5739 62.4593 11.3054C62.4593 11.0336 62.562 10.8033 62.7675 10.6143C62.973 10.4221 63.2183 10.326 63.5033 10.326C63.7916 10.326 64.0369 10.4221 64.2391 10.6143C64.4446 10.8033 64.5473 11.0336 64.5473 11.3054C64.5473 11.5739 64.4446 11.8042 64.2391 11.9964C64.0369 12.1854 63.7916 12.2798 63.5033 12.2798ZM69.4299 24.0227C68.7836 24.0227 68.2284 23.9349 67.7644 23.7592C67.3004 23.5869 66.9275 23.3549 66.6458 23.0632C66.3641 22.7715 66.1685 22.4484 66.0591 22.0938L67.6799 21.701C67.7528 21.8501 67.8589 21.9976 67.9981 22.1435C68.1373 22.2926 68.3245 22.4152 68.5599 22.5114C68.7985 22.6108 69.0984 22.6605 69.4597 22.6605C69.9701 22.6605 70.3927 22.5362 70.7275 22.2876C71.0622 22.0424 71.2296 21.638 71.2296 21.0746V19.6278H71.1401C71.0473 19.8134 70.9114 20.004 70.7324 20.1996C70.5568 20.3951 70.3231 20.5592 70.0314 20.6918C69.7431 20.8243 69.3802 20.8906 68.9427 20.8906C68.356 20.8906 67.8241 20.7531 67.3468 20.478C66.8728 20.1996 66.495 19.7853 66.2133 19.2351C65.9349 18.6816 65.7956 17.9889 65.7956 17.157C65.7956 16.3184 65.9349 15.6108 66.2133 15.0341C66.495 14.4541 66.8745 14.0149 67.3518 13.7166C67.829 13.415 68.361 13.2642 68.9476 13.2642C69.3951 13.2642 69.763 13.3404 70.0513 13.4929C70.343 13.642 70.575 13.8227 70.7474 14.0348C70.9197 14.2436 71.0506 14.4408 71.1401 14.6264H71.2395V13.3636H73.0144V21.1243C73.0144 21.7772 72.8586 22.3175 72.5471 22.745C72.2355 23.1726 71.8096 23.4924 71.2694 23.7045C70.7291 23.9167 70.116 24.0227 69.4299 24.0227ZM69.4448 19.4787C69.826 19.4787 70.1508 19.3859 70.4192 19.2003C70.6877 19.0147 70.8915 18.7479 71.0307 18.3999C71.1699 18.0518 71.2395 17.6342 71.2395 17.147C71.2395 16.6664 71.1699 16.2455 71.0307 15.8842C70.8948 15.523 70.6927 15.2429 70.4242 15.044C70.159 14.8419 69.8326 14.7408 69.4448 14.7408C69.0438 14.7408 68.709 14.8452 68.4405 15.054C68.1721 15.2628 67.9699 15.5495 67.834 15.9141C67.6981 16.2753 67.6302 16.6863 67.6302 17.147C67.6302 17.6143 67.6981 18.0237 67.834 18.375C67.9732 18.723 68.177 18.9948 68.4455 19.1903C68.7173 19.3826 69.0504 19.4787 69.4448 19.4787ZM76.5186 16.5256V21H74.7189V10.8182H76.4788V14.6612H76.5683C76.7473 14.2304 77.024 13.8906 77.3985 13.642C77.7764 13.3902 78.257 13.2642 78.8403 13.2642C79.3706 13.2642 79.833 13.3752 80.2274 13.5973C80.6218 13.8194 80.9267 14.1442 81.1422 14.5717C81.3609 14.9993 81.4703 15.5213 81.4703 16.1378V21H79.6706V16.4162C79.6706 15.9025 79.538 15.5031 79.2728 15.218C79.011 14.9297 78.6431 14.7855 78.1691 14.7855C77.851 14.7855 77.5659 14.8551 77.314 14.9943C77.0654 15.1302 76.8699 15.3274 76.7274 15.5859C76.5882 15.8445 76.5186 16.1577 76.5186 16.5256ZM86.978 13.3636V14.7557H82.5881V13.3636H86.978ZM83.6719 11.5341H85.4716V18.7031C85.4716 18.9451 85.5081 19.1307 85.581 19.2599C85.6572 19.3859 85.7567 19.4721 85.8793 19.5185C86.0019 19.5649 86.1378 19.5881 86.287 19.5881C86.3996 19.5881 86.5024 19.5798 86.5952 19.5632C86.6913 19.5466 86.7642 19.5317 86.8139 19.5185L87.1172 20.9254C87.0211 20.9586 86.8835 20.995 86.7046 21.0348C86.5289 21.0746 86.3135 21.0978 86.0583 21.1044C85.6075 21.1177 85.2015 21.0497 84.8402 20.9006C84.479 20.7481 84.1923 20.5128 83.9801 20.1946C83.7713 19.8764 83.6686 19.4787 83.6719 19.0014V11.5341ZM88.3432 21V13.3636H90.0882V14.6364H90.1677C90.3069 14.1955 90.5456 13.8558 90.8836 13.6172C91.225 13.3752 91.6145 13.2543 92.052 13.2543C92.1514 13.2543 92.2624 13.2592 92.3851 13.2692C92.511 13.2758 92.6154 13.2874 92.6983 13.304V14.9595C92.622 14.933 92.5011 14.9098 92.3353 14.8899C92.1729 14.8667 92.0155 14.8551 91.863 14.8551C91.5349 14.8551 91.2399 14.9264 90.9781 15.0689C90.7196 15.2081 90.5157 15.402 90.3666 15.6506C90.2174 15.8991 90.1429 16.1858 90.1429 16.5107V21H88.3432ZM96.8202 21.1491C96.0545 21.1491 95.3933 20.9901 94.8365 20.6719C94.283 20.3504 93.8571 19.8963 93.5588 19.3097C93.2605 18.7197 93.1114 18.0253 93.1114 17.2266C93.1114 16.4411 93.2605 15.7517 93.5588 15.1584C93.8604 14.5618 94.2813 14.0978 94.8216 13.7663C95.3618 13.4316 95.9965 13.2642 96.7257 13.2642C97.1963 13.2642 97.6405 13.3404 98.0581 13.4929C98.479 13.642 98.8502 13.8741 99.1717 14.1889C99.4965 14.5038 99.7517 14.9048 99.9374 15.392C100.123 15.8759 100.216 16.4527 100.216 17.1222V17.674H93.9565V16.4609H98.4906C98.4873 16.1162 98.4127 15.8097 98.2669 15.5412C98.1211 15.2694 97.9172 15.0556 97.6554 14.8999C97.3969 14.7441 97.0953 14.6662 96.7506 14.6662C96.3827 14.6662 96.0595 14.7557 95.7811 14.9347C95.5027 15.1103 95.2856 15.3423 95.1298 15.6307C94.9774 15.9157 94.8995 16.2289 94.8962 16.5703V17.6293C94.8962 18.0734 94.9774 18.4545 95.1398 18.7727C95.3022 19.0876 95.5292 19.3295 95.8209 19.4986C96.1125 19.6643 96.4539 19.7472 96.845 19.7472C97.1069 19.7472 97.3438 19.7107 97.556 19.6378C97.7681 19.5616 97.952 19.4505 98.1078 19.3047C98.2636 19.1589 98.3812 18.9782 98.4608 18.7628L100.141 18.9517C100.035 19.3958 99.8329 19.7836 99.5347 20.1151C99.2397 20.4432 98.8618 20.6984 98.4011 20.8807C97.9404 21.0597 97.4134 21.1491 96.8202 21.1491ZM104.979 21.1491C104.213 21.1491 103.552 20.9901 102.995 20.6719C102.442 20.3504 102.016 19.8963 101.718 19.3097C101.419 18.7197 101.27 18.0253 101.27 17.2266C101.27 16.4411 101.419 15.7517 101.718 15.1584C102.019 14.5618 102.44 14.0978 102.98 13.7663C103.521 13.4316 104.155 13.2642 104.885 13.2642C105.355 13.2642 105.799 13.3404 106.217 13.4929C106.638 13.642 107.009 13.8741 107.331 14.1889C107.655 14.5038 107.911 14.9048 108.096 15.392C108.282 15.8759 108.375 16.4527 108.375 17.1222V17.674H102.115V16.4609H106.649C106.646 16.1162 106.572 15.8097 106.426 15.5412C106.28 15.2694 106.076 15.0556 105.814 14.8999C105.556 14.7441 105.254 14.6662 104.909 14.6662C104.541 14.6662 104.218 14.7557 103.94 14.9347C103.662 15.1103 103.444 15.3423 103.289 15.6307C103.136 15.9157 103.058 16.2289 103.055 16.5703V17.6293C103.055 18.0734 103.136 18.4545 103.299 18.7727C103.461 19.0876 103.688 19.3295 103.98 19.4986C104.271 19.6643 104.613 19.7472 105.004 19.7472C105.266 19.7472 105.503 19.7107 105.715 19.6378C105.927 19.5616 106.111 19.4505 106.267 19.3047C106.422 19.1589 106.54 18.9782 106.62 18.7628L108.3 18.9517C108.194 19.3958 107.992 19.7836 107.693 20.1151C107.399 20.4432 107.021 20.6984 106.56 20.8807C106.099 21.0597 105.572 21.1491 104.979 21.1491Z" fill="#33383F"/>
</svg>
